<svg viewBox="0 0 40 40" fill="none" xmlns="http://www.w3.org/2000/svg">
<path d="M0 8C0 3.58172 3.58172 0 8 0H32C36.4183 0 40 3.58172 40 8V32C40 36.4183 36.4183 40 32 40H8C3.58172 40 0 36.4183 0 32V8Z" fill="#372689"/>
<path d="M27.6758 10.5898L21.0781 18.875H24.6992V19.3438H20.7148L14.6914 26.9023C14.8867 26.8164 15.0977 26.7461 15.3242 26.6914C15.5586 26.6289 15.8281 26.5977 16.1328 26.5977C16.5078 26.5977 16.9023 26.6367 17.3164 26.7148C17.7305 26.793 18.1484 26.8906 18.5703 27.0078C19 27.125 19.4258 27.25 19.8477 27.3828C20.2773 27.5156 20.6914 27.6406 21.0898 27.7578C21.4883 27.875 21.8633 27.9727 22.2148 28.0508C22.5664 28.1289 22.8828 28.168 23.1641 28.168C23.4375 28.168 23.7148 28.1172 23.9961 28.0156C24.2852 27.9062 24.6094 27.6914 24.9688 27.3711C25.4141 26.9727 25.9023 26.4102 26.4336 25.6836C26.9648 24.957 27.5195 24.1055 28.0977 23.1289L28.7422 22.0508L29.0469 22.2734L28.4023 23.3516C28.082 23.8906 27.7812 24.3828 27.5 24.8281C27.2188 25.2656 26.9492 25.668 26.6914 26.0352C26.4336 26.3945 26.1797 26.7188 25.9297 27.0078C25.6875 27.2969 25.4453 27.5586 25.2031 27.793C24.8984 28.082 24.5977 28.3203 24.3008 28.5078C24.0039 28.6953 23.7109 28.8438 23.4219 28.9531C23.1328 29.0547 22.8438 29.125 22.5547 29.1641C22.2734 29.2031 21.9922 29.2227 21.7109 29.2227C21.0234 29.2227 20.3594 29.1445 19.7188 28.9883C19.0859 28.8242 18.4766 28.6484 17.8906 28.4609C17.3125 28.2734 16.7539 28.1016 16.2148 27.9453C15.6836 27.7812 15.1797 27.6992 14.7031 27.6992C14.4688 27.6992 14.2852 27.7266 14.1523 27.7812C14.0195 27.8281 13.8867 27.9102 13.7539 28.0273C13.6289 28.1445 13.4805 28.3008 13.3086 28.4961C13.1367 28.6914 12.8867 28.9336 12.5586 29.2227L12.2891 28.7773L19.8359 19.3438H16.0391V18.875H20.1992L26.2344 11.3281C25.8672 11.5312 25.4805 11.7188 25.0742 11.8906C24.6758 12.0625 24.2812 12.2109 23.8906 12.3359C23.5078 12.4609 23.1406 12.5586 22.7891 12.6289C22.4375 12.6992 22.1328 12.7344 21.875 12.7344C21.4609 12.7344 21.0352 12.6641 20.5977 12.5234C20.168 12.375 19.7422 12.2148 19.3203 12.043C18.8984 11.8711 18.4922 11.7148 18.1016 11.5742C17.7188 11.4258 17.3672 11.3516 17.0469 11.3516C16.8594 11.3516 16.6602 11.3906 16.4492 11.4688C16.2461 11.5391 16.0117 11.7031 15.7461 11.9609C15.4805 12.2109 15.1758 12.5781 14.832 13.0625C14.4961 13.5391 14.0977 14.1875 13.6367 15.0078L13.0156 16.0977L12.7109 15.8867L13.332 14.7852C13.6914 14.1445 14.0156 13.5859 14.3047 13.1094C14.5938 12.625 14.8594 12.2109 15.1016 11.8672C15.3438 11.5156 15.5664 11.2305 15.7695 11.0117C15.9805 10.7852 16.1875 10.6055 16.3906 10.4727C16.6016 10.3398 16.8164 10.2461 17.0352 10.1914C17.2539 10.1367 17.4922 10.1094 17.75 10.1094C18.2031 10.1094 18.625 10.1914 19.0156 10.3555C19.4141 10.5117 19.8008 10.6875 20.1758 10.8828C20.5508 11.0703 20.9297 11.2461 21.3125 11.4102C21.7031 11.5664 22.1172 11.6445 22.5547 11.6445C22.7422 11.6445 23.0039 11.625 23.3398 11.5859C23.6836 11.5391 24.0664 11.4609 24.4883 11.3516C24.918 11.2344 25.3789 11.0781 25.8711 10.8828C26.3633 10.6875 26.8594 10.4336 27.3594 10.1211L27.6758 10.5898Z" fill="#ECEEFF"/>
</svg>
