<svg width="53" height="54" viewBox="0 0 53 54" fill="none" xmlns="http://www.w3.org/2000/svg">
<path d="M44.9718 16.9492H36.8753V35.2943H44.9718V16.9492Z" fill="#BDECFF"/>
<path d="M44.9718 15.0781H36.8753V16.9492H44.9718V15.0781Z" fill="#25C0FF"/>
<path d="M16.1148 16.9492H8.01826V35.2943H16.1148V16.9492Z" fill="#BDECFF"/>
<path d="M16.1148 15.0781H8.01826V16.9492H16.1148V15.0781Z" fill="#25C0FF"/>
<path d="M30.6475 16.9492H22.5509V35.2943H30.6475V16.9492Z" fill="#BDECFF"/>
<path d="M30.6475 15.0781H22.5509V16.9492H30.6475V15.0781Z" fill="#25C0FF"/>
<path d="M26.7026 1.35657L2.62059 11.1279V15.078H26.7026H50.7847V11.1279L26.7026 1.35657Z" fill="#BDECFF"/>
<path d="M26.7026 2.68713L2.62059 12.3961V14.0385L26.7026 4.35034L50.7847 14.0385V12.3961L26.7026 2.68713Z" fill="#25C0FF"/>
<path d="M52.2795 10.0676L27.0556 0.0884281C26.765 -0.036312 26.4328 -0.036312 26.1421 0.0884281L1.22966 10.0676C0.918258 10.1924 0.752175 10.5458 0.897498 10.8784L1.56183 12.5417C1.68639 12.8535 2.03932 12.999 2.35073 12.8743L26.5989 3.16535L51.1377 12.8951C51.4491 13.0198 51.802 12.8743 51.9473 12.5624L52.6324 10.8992C52.757 10.5666 52.5909 10.1924 52.2795 10.0676Z" fill="#65D3FF"/>
<path d="M47.5669 35.2942H26.7027H5.83845C5.54781 35.2942 5.31944 35.5229 5.31944 35.8139V40.2838H26.7027H48.0859V35.8139C48.0859 35.5437 47.8575 35.2942 47.5669 35.2942Z" fill="#25C0FF"/>
<path d="M49.8713 40.2838H26.7027H3.53415C3.1397 40.2838 2.82829 40.5957 2.82829 40.9907V45.1903C2.82829 45.5853 3.1397 45.8971 3.53415 45.8971H26.7027H49.8713C50.2658 45.8971 50.5772 45.5853 50.5772 45.1903V40.9907C50.5772 40.6165 50.2658 40.2838 49.8713 40.2838Z" fill="#25C0FF"/>
<path d="M26.7027 38.6206H5.31944V40.2838H26.7027H48.0859V38.6206H26.7027Z" fill="#BDECFF"/>
<path d="M26.495 13.207C28.3295 13.207 29.8167 11.7177 29.8167 9.8806C29.8167 8.04348 28.3295 6.5542 26.495 6.5542C24.6605 6.5542 23.1734 8.04348 23.1734 9.8806C23.1734 11.7177 24.6605 13.207 26.495 13.207Z" fill="#25C0FF"/>
<path d="M26.4951 54.0052C32.7439 54.0052 37.8095 48.9324 37.8095 42.6747C37.8095 36.417 32.7439 31.3441 26.4951 31.3441C20.2463 31.3441 15.1807 36.417 15.1807 42.6747C15.1807 48.9324 20.2463 54.0052 26.4951 54.0052Z" fill="#65D3FF"/>
<path d="M22.3637 42.2875C22.6751 42.2875 23.0073 42.4123 23.2356 42.6618L26.4742 45.905L29.7129 42.641C30.1904 42.1628 30.9793 42.1628 31.4775 42.641C31.955 43.1191 31.955 43.9092 31.4775 44.4081L27.3669 48.5246C26.8895 49.0027 26.1006 49.0027 25.6023 48.5246L21.4917 44.4081C21.0143 43.93 21.0143 43.1399 21.4917 42.641C21.7201 42.3915 22.0523 42.2875 22.3637 42.2875Z" fill="white"/>
<path d="M26.4743 36.4663C27.1594 36.4663 27.72 37.0276 27.72 37.7137L27.72 47.4226C27.72 48.1087 27.1594 48.67 26.4743 48.67C25.7892 48.67 25.2287 48.1087 25.2287 47.4226L25.2287 37.7137C25.2287 37.0276 25.7892 36.4663 26.4743 36.4663Z" fill="white"/>
</svg>
