<svg width="49" height="53" viewBox="0 0 49 53" fill="none" xmlns="http://www.w3.org/2000/svg">
<path d="M42.6703 29.7535C40.8888 27.8957 37.3486 28.7214 36.0924 29.9599C33.1233 29.0425 30.3825 30.6479 29.2634 32.7809L28.5554 39.1338V41.198H34.9505L42.6703 29.7535Z" fill="#19E8CF"/>
<path d="M0.393984 43.8584L8.63909 51.9544C9.21009 52.5048 10.1465 52.436 10.6033 51.7709L11.6768 50.2572C11.8823 49.959 12.2021 49.7755 12.5675 49.7297L35.7269 46.6564C36.0467 46.6105 36.3207 46.45 36.5263 46.2206L48.4257 32.5973C48.8825 32.0928 48.8597 31.313 48.3572 30.8084C46.3702 28.8131 43.1498 28.7902 41.1399 30.7626L33.0318 38.7439C32.7806 38.9732 32.4608 39.1108 32.1182 39.1108H28.5324V32.6891H12.3391C10.7403 32.6891 9.21009 33.3083 8.0681 34.4321L0.393984 41.9777C-0.131328 42.5052 -0.131328 43.3309 0.393984 43.8584Z" fill="#00BBA7"/>
<path d="M28.578 39.1338H18.9854V32.712H28.578C30.3367 32.712 31.7756 34.1569 31.7756 35.9229C31.7756 37.6889 30.3367 39.1338 28.578 39.1338Z" fill="#00BBA7"/>
<path d="M18.9854 39.1338C18.9854 38.2852 19.6705 37.5972 20.5156 37.5972H28.578C30.862 37.5972 32.0039 35.4642 30.8848 33.6982C32.8033 35.5789 31.5472 39.1338 28.578 39.1338H18.9854Z" fill="#4DFBE0"/>
<path d="M28.5727 27.1098C34.0316 27.1098 38.4569 22.666 38.4569 17.1843C38.4569 11.7027 34.0316 7.25891 28.5727 7.25891C23.1138 7.25891 18.6885 11.7027 18.6885 17.1843C18.6885 22.666 23.1138 27.1098 28.5727 27.1098Z" fill="#00BBA7"/>
<path d="M28.5728 24.7663C32.7428 24.7663 36.1233 21.3717 36.1233 17.1843C36.1233 12.997 32.7428 9.60242 28.5728 9.60242C24.4029 9.60242 21.0224 12.997 21.0224 17.1843C21.0224 21.3717 24.4029 24.7663 28.5728 24.7663Z" fill="#4DFBE0"/>
<path d="M27.3649 18.8387C27.5021 19.4176 27.914 19.7761 28.5729 19.7761C29.3966 19.7761 29.6437 19.3901 29.6437 18.9489C29.6437 18.3975 29.3692 18.1494 28.3533 17.8461C26.5137 17.3223 25.9646 16.633 25.9646 15.5853C25.9646 14.2619 27.1178 13.5175 28.4356 13.5175C30.3301 13.5175 30.9616 14.4825 31.044 15.475H29.479C29.3966 15.1718 29.2593 14.6755 28.4082 14.6755C27.6943 14.6755 27.5021 15.0891 27.5021 15.4199C27.5021 15.8886 27.7492 16.1092 28.9299 16.44C30.5772 16.9087 31.1813 17.5704 31.1813 18.7284C31.1813 20.1896 30.0556 20.9065 28.4906 20.9065C26.8157 20.9065 25.8548 20.0518 25.7724 18.8111H27.3649V18.8387ZM27.8042 13.9862V12.8558H29.1221V13.9862H27.8042ZM27.8865 21.7611V20.1621H29.2044V21.7611H27.8865Z" fill="white"/>
<path d="M12.2021 12.2477C15.5702 12.2477 18.3005 9.50595 18.3005 6.12384C18.3005 2.74174 15.5702 0 12.2021 0C8.83406 0 6.1037 2.74174 6.1037 6.12384C6.1037 9.50595 8.83406 12.2477 12.2021 12.2477Z" fill="#00BBA7"/>
<path d="M12.2021 10.8081C14.7783 10.8081 16.8668 8.71091 16.8668 6.1239C16.8668 3.53689 14.7783 1.4397 12.2021 1.4397C9.62578 1.4397 7.53729 3.53689 7.53729 6.1239C7.53729 8.71091 9.62578 10.8081 12.2021 10.8081Z" fill="#4DFBE0"/>
</svg>
